<?xml version='1.0' encoding='utf-8'?>
<svg xmlns="http://www.w3.org/2000/svg" version="1.1" width="600px" height="976px" viewBox="0 0 600 976"> <g id="layer1"> <g style="fill:rgb(0,0,0); fill-opacity:1.0; stroke-linejoin: miter"> <path d="M321.735,441.87363L321.90808,442.13C321.78595,442.05402,321.712,441.95926,321.73178,441.87363 Z M303.10004,426.1075C303.21585,426.1075,303.40503,426.30243,303.40503,426.45013C303.40503,426.5366,303.30774,426.6015,303.18884,426.6015C302.90778,426.6015,302.79968,426.8717,302.98346,427.10953C303.1672,427.31488,304.19415,427.79053,304.48596,427.79053C304.55948,427.79053,304.658,427.75555,304.74408,427.70596L304.74713,427.70596L317.44196,435.51477L318.56992,437.18552L318.56674,437.18552C318.73227,437.62683,318.80872,438.17346,318.80872,438.892C318.80872,439.33487,318.7908,439.64557,318.75394,439.82513Q318.39355,439.70282,318.11908,439.70282Q318.11505,439.70282,318.11105,439.70285L318.10544,439.70267Q318.02576,439.6919,317.9472,439.6919Q316.6571,439.6919,315.6709,442.60156Q315.24356,443.82037,314.8223,445.58188L313.7708,450.31558Q313.41812,451.86807,312.77844,454.60547L312.77533,454.60547C312.5519,454.80148,312.26367,455.20856,312.16083,455.51715C312.09595,455.71176,311.92297,455.9171,311.78247,455.98196C311.62033,456.05765,311.5122,456.19818,311.5122,456.32788C311.5122,456.44678,311.469,456.54407,311.41495,456.54407C311.05823,456.54407,311.3501,457.67908,311.8257,458.10068C312.11755,458.3601,312.10675,458.43576,311.78247,458.79248C311.63113,458.95462,311.5122,459.1384,311.5122,459.21405C311.5122,459.2897,311.41495,459.45184,311.29602,459.57077C311.17712,459.68967,311.07983,459.9275,311.07983,460.11124C311.07983,460.37067,311.01498,460.46796,310.7988,460.5436C310.64746,460.6085,310.49612,460.749,310.46368,460.85712C310.43127,460.97598,310.33398,461.0949,310.2367,461.12732C310.1286,461.17056,309.93402,461.26788,309.7827,461.35434C309.63135,461.44083,309.37195,461.51648,309.20978,461.51648C309.04767,461.51648,308.73413,461.59216,308.51794,461.67865C308.3126,461.7651,307.93423,461.84076,307.68564,461.84076C307.42825,461.84076,307.30096,461.81577,307.1812,461.7045L307.17816,461.7045Q307.26263,460.049,307.00488,457.54205Q306.62448,454.03946,305.88867,451.0132Q305.6332,449.98584,305.3461,449.1128Q305.21176,448.62598,304.18616,446.0213Q303.97238,445.4199,303.84778,444.78958Q303.7251,444.1503,303.6561,443.36374L303.42865,439.95737Q303.3594,439.06818,303.26767,438.36508Q303.02615,436.5311,302.56326,434.82437Q301.73685,431.62646,300.39594,430.4361L300.3929,430.4361C300.3657,430.1301,300.39017,429.73627,300.47562,429.73627C300.52966,429.73627,300.59454,429.60654,300.62695,429.4336C300.6594,429.27142,300.84314,428.96875,301.02692,428.7634C301.2647,428.48233,301.3512,428.27695,301.3512,427.97427C301.3512,427.67163,301.39444,427.57434,301.53497,427.57434C301.69708,427.57434,301.69708,427.55273,301.52417,427.36896C301.39444,427.22842,301.3512,427.02304,301.3728,426.69876L301.40527,426.22314L302.19434,426.21234C302.6267,426.2015,303.00507,426.1691,303.04834,426.12585C303.06256,426.11322,303.08023,426.1075,303.10004,426.1075 Z M299.10217,510.1697C299.19788,510.1706,299.385,510.2549,299.66492,510.41913C299.9135,510.55963,300.29187,510.7002,300.50806,510.7434C300.72424,510.78665,300.91882,510.8623,300.94043,510.91638C300.96204,510.9704,301.2107,511.0677,301.51337,511.12177C301.80518,511.17578,302.06464,511.27307,302.08624,511.33795C302.10785,511.4028,302.20517,511.45685,302.29163,511.45685C302.38892,511.45685,302.90778,511.59735,303.44824,511.77032C303.98874,511.9433,304.89673,512.2135,305.45886,512.36487C306.529,512.6567,307.37213,512.90533,308.64767,513.2945C309.77188,513.6512,311.11227,513.92145,312.09595,514.00793C312.5824,514.05115,312.99316,514.116,313.02557,514.15924C313.05798,514.2025,313.46875,514.28894,313.9444,514.3538C314.42,514.4187,314.81995,514.516,314.84158,514.5808C314.8632,514.6457,315.05777,514.7214,315.27396,514.7646C315.61987,514.8186,317.02515,515.2294,317.10077,515.29425C317.16565,515.3375,316.6576,516.28876,316.4414,516.51575C316.3225,516.65625,316.04144,516.86163,315.83606,516.9697C315.63068,517.0778,315.38208,517.2724,315.2956,517.3913C315.2091,517.52106,315.0794,517.6183,314.99292,517.6183C314.91727,517.6183,314.7227,517.70483,314.56055,517.80206C314.16058,518.0615,308.6585,523.6068,308.03156,524.38513C307.7505,524.7418,307.39374,525.1742,307.22083,525.35803C307.05865,525.54175,306.6479,526.0822,306.3236,526.56866C305.99933,527.0551,305.70746,527.4551,305.67505,527.4551C305.6426,527.4551,305.62097,527.0983,305.62097,526.66595C305.6318,526.2444,305.58856,525.8228,305.53452,525.74713C305.44806,525.63904,305.45886,525.5742,305.57776,525.49854C305.69666,525.42285,305.69666,525.40125,305.57776,525.40125C305.46967,525.40125,305.45886,525.3688,305.55615,525.2499C305.6426,525.14185,305.6318,525.0013,305.50208,524.6878C305.37238,524.39594,305.2859,523.7257,305.23184,522.5367C305.11295,520.46124,305.0805,520.0829,304.94,519.8235C304.64813,519.2506,304.4968,518.7966,304.55084,518.64526C304.59406,518.5588,304.56165,518.4831,304.5076,518.4831C304.38873,518.4831,303.76175,517.29407,303.8158,517.1535C303.8266,517.1103,303.76175,517.0778,303.6753,517.0778C303.52393,517.0778,303.45908,516.9481,303.50232,516.7211C303.51312,516.67786,303.43747,516.61304,303.35098,516.58057C303.26453,516.53735,303.18884,516.45087,303.18884,516.37524C303.18884,516.29956,303.14557,516.2131,303.10236,516.19147C303.0591,516.1698,302.88617,515.878,302.72403,515.53204C302.42136,514.8943,302.30243,514.7105,301.97815,514.40784C301.88086,514.3106,301.81604,514.19165,301.84845,514.13763C301.88086,514.09436,301.8268,514.05115,301.72955,514.05115C301.64307,514.05115,301.53497,513.97546,301.50253,513.889C301.4701,513.8025,301.3512,513.70526,301.2431,513.6728C301.1242,513.6404,300.95123,513.4134,300.85394,513.17554C300.74585,512.9486,300.62695,512.754,300.5729,512.754C300.52966,512.754,300.48645,512.69995,300.48645,512.62427C300.48645,512.55945,300.36752,512.34326,300.2162,512.1487C300.06488,511.9541,299.94595,511.75952,299.94595,511.71628C299.94595,511.67303,299.7622,511.39197,299.5352,511.08932C299.07065,510.46994,298.92233,510.1714,299.09918,510.1697 Z M284.14233,525.07697C284.18555,525.07697,284.32608,525.43365,284.4558,525.8552C284.5855,526.2876,284.72604,526.78485,284.75848,526.9686C284.8017,527.1416,284.86658,527.3902,284.9206,527.5091C284.96387,527.628,285.07196,528.01715,285.14758,528.3739C285.22327,528.7306,285.32056,529.0657,285.36377,529.13055C285.40704,529.1846,285.53674,529.6278,285.65567,530.1034C285.7854,530.57904,285.96912,531.3357,286.08804,531.7897C286.20694,532.2437,286.36908,532.7734,286.46637,532.97876C286.55286,533.18414,286.68256,533.6165,286.74744,533.9408C286.80145,534.26514,286.98523,534.9677,287.1474,535.5082C287.47168,536.55676,287.5149,537.3242,287.3203,538.4268C287.169,539.3132,286.97443,542.08044,286.97443,543.45325C286.96362,544.1775,286.92038,544.67474,286.8231,544.8369L286.68256,545.0963L286.52045,544.8369C286.42313,544.68555,286.32587,544.1775,286.28262,543.56134C286.22858,542.99927,286.1529,542.4696,286.08804,542.4047C286.0232,542.31824,286.0016,542.03723,286.0556,541.6697C286.10968,541.2373,286.0772,540.9995,285.9583,540.7833C285.86102,540.58875,285.75293,539.8429,285.66644,538.697C285.6016,537.7134,285.48273,536.7621,285.39624,536.5892C285.32056,536.4054,285.21246,535.56226,285.14758,534.6975C284.99628,532.7301,284.9206,532.17883,284.8017,532.05994C284.74765,531.9951,284.7044,531.62756,284.7044,531.2276C284.7044,530.82764,284.6612,530.47095,284.60712,530.4385C284.5639,530.40607,284.53146,530.1034,284.54227,529.7575C284.5531,529.4116,284.52066,529.09814,284.4558,529.0657C284.40173,529.02246,284.34772,528.6549,284.33688,528.255C284.32608,527.84424,284.29364,527.4551,284.25043,527.401C284.18555,527.3037,284.1315,526.89294,284.00177,525.56335C283.96936,525.2283,284.0126,525.07697,284.14233,525.07697 Z M276.02606,525.42255C276.7812,525.42255,277.44113,525.43634,277.8079,525.46606L278.62943,525.54175L278.74832,525.9417C278.81317,526.1687,278.86725,526.61194,278.86725,526.93616C278.86725,527.2605,278.89966,527.5632,278.93207,527.5956C278.97534,527.6388,279.02936,527.91986,279.051,528.23334C279.07263,528.5468,279.13745,529.04407,279.20233,529.34674C279.26718,529.6386,279.36447,530.27637,279.41852,530.752C279.60226,532.3734,279.7212,533.23816,279.89417,534.37317C279.9914,535.0002,280.12112,535.8433,280.16437,536.2649C280.43463,538.34033,280.48865,538.7295,280.54272,538.9348C280.6076,539.1294,280.69406,539.73474,280.91022,541.6913C280.9643,542.17773,281.02914,542.621,281.06158,542.6642C281.094,542.7074,281.19128,543.45325,281.29938,544.31805C281.39667,545.1828,281.52637,546.00433,281.58044,546.1449C281.6453,546.2962,281.7534,547.15015,281.83984,548.03656C281.92633,548.9337,282.04523,549.84174,282.0993,550.0471C282.16415,550.2525,282.2182,550.60925,282.2182,550.84705C282.2182,551.07404,282.27225,551.4415,282.3371,551.6686C282.4452,552.01447,282.42358,552.18744,282.17496,552.9225C282.01282,553.3873,281.82904,553.8629,281.77502,553.9602C281.72095,554.0683,281.67773,554.2521,281.67773,554.36017C281.67773,554.47906,281.63446,554.60876,281.56964,554.64124C281.51556,554.67365,281.46155,554.84656,281.46155,555.03033L281.46155,555.3438L277.8187,555.3438C274.3272,555.3546,270.53302,555.4844,269.44125,555.6249L268.9224,555.70056L268.99805,554.3061C269.0305,553.53864,269.09534,552.8901,269.13858,552.8576C269.23587,552.782,269.4845,550.83624,269.5277,549.73364C269.56015,549.16077,269.625,548.7824,269.7115,548.72833C269.79797,548.6743,269.8412,548.32837,269.8412,547.669C269.8412,547.13934,269.87363,546.69617,269.90607,546.69617C269.93848,546.69617,270.00336,546.1773,270.03577,545.53955C270.079,544.79364,270.14386,544.36127,270.24115,544.30725C270.32764,544.2532,270.37088,543.9505,270.36005,543.37756C270.34924,542.9128,270.38168,542.5128,270.44653,542.4804C270.5006,542.43713,270.57626,541.89667,270.6087,541.2589C270.65192,540.62115,270.7276,540.1023,270.78165,540.1023C270.8249,540.1023,270.8681,539.6915,270.8681,539.1943C270.8681,538.5781,270.91138,538.26465,270.99783,538.24304C271.0843,538.2106,271.13837,537.8431,271.14917,537.12964C271.17078,536.4811,271.22485,536.0379,271.28967,536.01624C271.35455,535.9946,271.4086,535.70276,271.4086,535.3677C271.4086,535.0218,271.45184,534.5786,271.5059,534.37317C271.55994,534.16785,271.63562,533.4868,271.66803,532.87067C271.70044,532.20044,271.76532,531.71405,271.841,531.6708C271.91666,531.62756,271.9599,531.3465,271.9383,530.94653C271.92746,530.58984,271.9599,530.23315,272.01395,530.14667C272.068,530.0602,272.12204,529.6494,272.13284,529.23865C272.15448,528.1577,272.29498,526.80646,272.38147,526.80646C272.41388,526.80646,272.44632,526.64435,272.45715,526.44977C272.46796,525.44446,272.40308,525.52014,273.2787,525.4769C274.10983,525.4418,275.1343,525.42255,276.02606,525.42255 Z M267.30096,525.29315C267.50635,525.29315,267.51715,525.3688,267.51715,526.30927C267.51715,527.00104,267.4739,527.3469,267.38745,527.3686C267.30096,527.401,267.2469,527.84424,267.21448,528.7306C267.18207,529.45483,267.128,530.0493,267.07397,530.0493C267.0199,530.0493,266.97668,530.50336,266.97668,531.0654C266.97668,531.63837,266.9334,532.1248,266.8686,532.1572C266.8145,532.18964,266.76047,532.5248,266.74966,532.8923C266.74966,533.2598,266.69562,533.8544,266.64157,534.21106C266.55508,534.8164,266.4362,535.94055,266.2308,538.2106C266.17676,538.7403,266.11188,539.25916,266.07947,539.3456C266.00378,539.5294,265.82004,541.3454,265.6795,543.34515C265.62546,544.09106,265.5282,545.1071,265.46332,545.6152C265.18225,547.8744,264.9012,550.3498,264.71747,552.31714C264.5337,554.3061,264.3499,556.04645,264.3175,556.0897C264.2959,556.1113,263.9608,556.16534,263.55002,556.2194C262.36096,556.3599,260.4801,556.7167,259.76666,556.922C259.71225,556.9368,259.66974,556.9466,259.6365,556.9466C259.52448,556.9466,259.51804,556.83575,259.51804,556.4356C259.51804,556.13293,259.56128,555.8843,259.61533,555.8843C259.66937,555.8843,259.74506,555.5168,259.78827,555.0736C259.8315,554.6304,259.90717,554.2629,259.96124,554.2629C260.01526,554.2629,260.05853,554.1115,260.05853,553.9386C260.05853,553.7548,260.10175,553.61426,260.15582,553.61426C260.19904,553.61426,260.27472,553.23596,260.31793,552.782C260.3612,552.31714,260.44766,551.9172,260.5125,551.87396C260.66388,551.7767,260.92328,550.64166,260.92328,550.0687C260.92328,549.8201,260.97736,549.61475,261.03137,549.61475C261.09625,549.61475,261.13947,549.4418,261.13947,549.2256C261.13947,549.0202,261.21515,548.7716,261.30164,548.6851C261.39893,548.5878,261.46378,548.3176,261.46378,548.03656C261.46378,547.7771,261.51782,547.5609,261.57187,547.5609C261.63672,547.5609,261.67996,547.3447,261.67996,547.0853C261.67996,546.80426,261.734,546.5881,261.8097,546.5664C261.88535,546.534,261.9502,546.2962,261.961,546.00433C261.9718,545.71246,262.02588,545.45306,262.07993,545.4098C262.20966,545.3341,262.54474,543.9505,262.54474,543.52893C262.54474,543.3668,262.59875,543.23706,262.65283,543.23706C262.71768,543.23706,262.76093,542.98846,262.76093,542.6966C262.76093,542.3939,262.80414,542.1561,262.85822,542.1561C262.91223,542.1561,262.9879,541.9075,263.03116,541.6156C263.0744,541.313,263.1501,541.0752,263.2041,541.0752C263.25818,541.0752,263.3014,540.85895,263.3014,540.58875C263.3014,540.3185,263.34464,540.1023,263.39868,540.1023C263.45273,540.1023,263.52838,539.83203,263.57166,539.50775C263.60406,539.1835,263.67975,538.9132,263.73376,538.9132C263.777,538.9132,263.84186,538.7295,263.8743,538.50244C264.05804,537.3134,264.1986,536.6432,264.28506,536.6432C264.3391,536.6432,264.38235,536.44867,264.38235,536.2108C264.38235,535.973,264.4256,535.77844,264.47964,535.77844C264.5337,535.77844,264.59854,535.61633,264.63098,535.42175C264.6742,535.238,264.72827,534.9029,264.76068,534.6975C264.80392,534.4921,264.86877,534.22186,264.92285,534.10297C264.96606,533.9841,265.0958,533.5192,265.19305,533.07605C265.30118,532.6329,265.42007,532.168,265.47412,532.04913C265.51736,531.93024,265.5822,531.68164,265.61465,531.50867C265.6363,531.3249,265.7444,530.8925,265.84167,530.53577C266.00378,529.898,266.1335,529.34674,266.3281,528.48193C266.38214,528.24414,266.50104,527.7577,266.59833,527.401C266.70642,527.0443,266.8037,526.56866,266.83612,526.3417C266.8686,526.1255,266.9334,525.9093,266.9875,525.87683C267.0415,525.8444,267.08478,525.7039,267.08478,525.5526C267.08478,525.3688,267.1388,525.29315,267.30096,525.29315 Z M263.86127,558.4867C264.17044,558.4867,264.17648,558.5234,264.11212,558.71643C264.06888,558.85693,264.01483,559.3109,263.9824,559.74335C263.94995,560.1973,263.8635,560.5757,263.78784,560.6405C263.732,560.6852,263.64435,560.7068,263.51157,560.7068C263.3874,560.7068,263.2237,560.6879,263.00952,560.65137C261.40973,560.3703,259.43158,559.99194,259.06403,559.88385C258.5992,559.75415,258.50192,559.4515,258.92352,559.4515C259.07483,559.4515,259.19373,559.40826,259.19373,559.3542C259.19373,559.3002,259.3991,559.2353,259.65857,559.2029C260.10175,559.1488,262.01508,558.7813,262.76093,558.59753C262.9663,558.54346,263.37708,558.50024,263.66895,558.48944C263.74326,558.48785,263.80695,558.4867,263.86127,558.4867 Z M277.27362,557.5507C279.02377,557.5507,282.70715,557.6301,282.95325,557.6895C283.15863,557.7328,283.19107,557.8192,283.19107,558.2084C283.19107,558.4678,283.2343,558.8137,283.29916,558.965C283.3532,559.11633,283.4397,559.5812,283.4721,559.99194C283.537,560.6405,283.52618,560.7378,283.3424,560.8351C283.01804,560.99725,277.26062,561.16626,273.2296,561.16626C272.156,561.16626,271.20483,561.15424,270.5114,561.12695C268.45758,561.0513,268.3603,561.04047,268.2846,560.8135C268.2306,560.6946,268.2306,560.5649,268.2738,560.5324C268.31705,560.5,268.3819,559.9487,268.41434,559.3002C268.45758,558.65155,268.52243,558.0895,268.55487,558.057C268.67377,557.9381,270.079,557.8408,273.0841,557.7219C274.74878,557.6679,276.22968,557.5922,276.381,557.5706C276.46002,557.55664,276.79434,557.5507,277.27362,557.5507 Z M296.0687,388.35556C296.0492,388.35556,296.03003,388.35608,296.01126,388.35712C295.8275,388.3679,295.01678,388.40036,294.21686,388.44357C293.41693,388.476,292.64948,388.5733,292.51978,388.63812C292.39005,388.7138,292.20627,388.76785,292.109,388.76785C292.01172,388.76785,291.74146,388.86514,291.50366,388.97324C291.26587,389.09216,290.93073,389.2219,290.75778,389.2543C290.57404,389.29755,290.43347,389.37317,290.43347,389.42725C290.43347,389.48132,290.3146,389.52454,290.17407,389.52454C290.03357,389.52454,289.893,389.55698,289.8714,389.6002C289.81735,389.72992,288.67154,390.2812,288.45532,390.2812C288.35806,390.2812,288.27158,390.32443,288.27158,390.3785C288.27158,390.43256,288.0554,390.5623,287.79596,390.65955C287.5257,390.76764,287.2879,390.90817,287.2555,390.98383C287.23386,391.05948,287.02847,391.14597,286.8231,391.1892C286.6069,391.23245,286.43396,391.30814,286.43396,391.373C286.43396,391.42703,286.25018,391.55676,286.034,391.66483C285.807,391.76212,285.55835,391.91345,285.48273,391.97833C285.40704,392.054,285.29895,392.11887,285.26654,392.11887C285.22327,392.11887,285.00708,392.28098,284.7909,392.46478C284.5639,392.6593,284.16394,393.01605,283.89368,393.25385C282.96405,394.06458,282.4344,394.58344,282.4344,394.7023C282.4344,394.77798,282.3587,394.8537,282.27225,394.8861C282.1858,394.92932,282.1101,395.0158,282.1101,395.09146C282.1101,395.16714,282.03442,395.25363,281.94797,395.29688C281.86148,395.3293,281.78583,395.42657,281.78583,395.52383C281.78583,395.61032,281.74258,395.686,281.67773,395.686C281.62366,395.686,281.56964,395.75085,281.56964,395.83734C281.56964,395.92383,281.49396,396.01028,281.40747,396.05353C281.32098,396.08594,281.24533,396.20486,281.24533,396.3238C281.24533,396.4427,281.2021,396.5724,281.13724,396.6048C281.0832,396.63727,281.02914,396.74536,281.02914,396.83182C281.02914,396.92914,280.9535,397.06964,280.867,397.15613C280.78052,397.2534,280.70483,397.43716,280.70483,397.5885C280.70483,397.729,280.66162,397.84793,280.59674,397.84793C280.54272,397.84793,280.48865,398.0425,280.48865,398.2911C280.48865,398.55054,280.41302,398.7992,280.3157,398.89645C280.1752,399.04782,280.15356,399.29642,280.18597,400.36658C280.2076,401.28537,280.26166,401.68533,280.35895,401.71774C280.44543,401.7394,280.48865,401.97717,280.48865,402.38797C280.48865,402.7339,280.54272,403.05814,280.59674,403.09058C280.72647,403.1663,280.7481,403.68515,280.6292,403.68515C280.38055,403.69592,278.00244,406.00916,278.00244,406.247C278.00244,406.30103,277.90515,406.40912,277.78625,406.4956C277.66736,406.5821,277.57007,406.6902,277.57007,406.7442C277.57007,406.85236,277.1161,407.51172,277.008,407.55496C276.95392,407.57657,276.9215,407.68466,276.9215,407.8036C276.9215,407.91165,276.87827,408.00894,276.81342,408.00894C276.75934,408.00894,276.70532,408.10626,276.70532,408.23596C276.70532,408.35486,276.62964,408.52783,276.54315,408.6143C276.42426,408.74402,276.381,409.03586,276.381,409.79257C276.381,410.58167,276.41345,410.80862,276.54315,410.86267C276.62964,410.8951,276.70532,411.04645,276.70532,411.19778C276.70532,411.34912,276.75934,411.46802,276.81342,411.46802C276.87827,411.46802,276.9215,411.5437,276.9215,411.63016C276.9215,411.83557,277.42957,412.33276,277.63495,412.33276C277.7214,412.33276,277.87274,412.41925,277.98083,412.52737C278.1754,412.72192,278.2943,412.75436,280.11035,413.19754C280.65082,413.32727,281.23453,413.5002,281.40747,413.5759C281.59125,413.66238,281.9804,413.75964,282.29388,413.79208C282.9965,413.87857,283.12622,414.0299,283.02893,414.62442C282.9965,414.88385,282.93164,415.273,282.89923,415.50003C282.86676,415.71622,282.80194,415.9324,282.74786,415.9648C282.69385,415.99725,282.65057,416.13776,282.65057,416.27832C282.65057,416.50528,282.5641,416.57016,281.9804,416.7431C281.38586,416.92685,281.29938,416.99176,281.26697,417.24036C281.24533,417.3917,281.18048,417.5214,281.12643,417.5214C281.06158,417.5214,281.05078,417.57544,281.094,417.64032C281.12643,417.70514,281.05078,417.9754,280.92105,418.23483C280.66162,418.72128,280.64,418.7321,279.81848,418.7321C279.5915,418.7321,279.4077,418.77533,279.4077,418.82935C279.4077,418.88342,279.35367,418.92667,279.28882,418.92667C279.16992,418.92667,278.86725,419.1969,278.86725,419.30496C278.86725,419.3482,278.80237,419.44553,278.73752,419.52118C278.3916,419.9103,278.32675,420.01843,278.32675,420.22382C278.32675,420.3427,278.2835,420.44,278.21866,420.44C278.1646,420.44,278.11053,420.50485,278.11053,420.58054C278.11053,420.66702,278.01328,420.83997,277.89435,420.98047C277.77545,421.121,277.67816,421.26154,277.67816,421.30478C277.67816,421.34802,277.54846,421.43448,277.39713,421.49936C276.9215,421.72632,276.381,422.21274,276.381,422.43976C276.381,422.65594,275.86215,423.03427,275.5703,423.03427C275.49463,423.03427,275.40814,423.0667,275.38654,423.10995C275.37573,423.164,275.15955,423.28293,274.9217,423.40186C274.6839,423.50992,274.40286,423.63962,274.30557,423.6937C274.19748,423.74774,274.01373,423.791,273.8948,423.791C273.77588,423.791,273.67862,423.83423,273.67862,423.89905C273.67862,423.95313,273.55972,424.00717,273.4192,424.00717C273.26785,424.00717,273.0733,424.08282,272.98682,424.1693C272.88953,424.2666,272.56525,424.3855,272.25177,424.43958C271.7437,424.52603,270.65192,424.9152,270.13306,425.1962C270.03577,425.25027,269.5926,425.42322,269.17102,425.58536C268.73865,425.74753,268.3819,425.92047,268.3819,425.9745C268.3819,426.01773,268.30624,426.06097,268.2198,426.06097C268.1333,426.06097,268.05762,426.10422,268.05762,426.1691C268.05762,426.22314,267.99277,426.27716,267.9063,426.27716C267.81982,426.27716,267.6793,426.34207,267.60364,426.41772C267.52795,426.49335,267.33337,426.61227,267.17123,426.67715C266.85776,426.8177,266.72803,426.91495,265.97137,427.63922C265.6903,427.89865,265.39844,428.1148,265.30118,428.1148C265.2147,428.1148,265.13904,428.15805,265.13904,428.2013C265.13904,428.25534,265.0093,428.3634,264.84717,428.4499C264.5121,428.62283,264.25262,428.81744,263.88513,429.16336C263.74457,429.30386,263.58246,429.41196,263.51758,429.41196C263.46356,429.41196,263.4095,429.4768,263.4095,429.5633C263.4095,429.64978,263.3122,429.74704,263.2041,429.79028C263.0852,429.82272,262.9555,429.95245,262.92307,430.06055C262.89063,430.16864,262.76093,430.29834,262.64203,430.3308C262.53394,430.37402,262.43665,430.43887,262.43665,430.49292C262.43665,430.547,262.31772,430.7091,262.16638,430.86044C262.01508,431.01178,261.89615,431.16312,261.89615,431.20636C261.89615,431.2496,261.7556,431.42255,261.57187,431.59552C261.39893,431.75766,261.24756,431.97388,261.24756,432.0495C261.24756,432.136,261.15027,432.24408,261.03137,432.27652C260.91248,432.31976,260.8368,432.38458,260.85843,432.42783C260.89087,432.47107,260.8152,432.5792,260.6963,432.65485C260.5882,432.74133,260.4909,432.84943,260.4909,432.90347C260.4909,432.9467,260.372,433.09805,260.22064,433.2386C260.06934,433.3791,259.95044,433.59528,259.95044,433.72498C259.95044,433.8547,259.88556,433.95197,259.78827,433.95197C259.70178,433.95197,259.62613,434.0493,259.62613,434.15738C259.62613,434.2763,259.5829,434.406,259.51804,434.43842C259.464,434.47083,259.40994,434.58975,259.40994,434.70868C259.40994,434.81674,259.3343,434.92487,259.2478,434.9681C259.16132,435.00052,259.08563,435.14108,259.08563,435.2816C259.08563,435.59503,258.81543,436.28687,258.65326,436.38416C258.5992,436.41656,258.54517,436.5463,258.54517,436.66522C258.54517,436.77332,258.50192,436.8706,258.43707,436.8706C258.38303,436.8706,258.32898,437.04358,258.32898,437.24893C258.32898,437.45428,258.28574,437.62726,258.2209,437.62726C258.1668,437.62726,258.0912,437.8002,258.0479,438.0056C258.0155,438.211,257.93982,438.38397,257.8858,438.38397C257.83173,438.38397,257.7885,438.50284,257.7885,438.65417C257.7885,438.8055,257.74527,438.9244,257.69122,438.9244C257.63715,438.9244,257.60474,439.06494,257.62634,439.24872C257.64798,439.42166,257.62634,439.5946,257.5615,439.627C257.50745,439.67026,257.46423,440.00537,257.46423,440.39453C257.46423,440.78366,257.42096,441.08633,257.3561,441.08633C257.30206,441.08633,257.24802,441.20526,257.24802,441.34576C257.24802,441.48627,257.20477,441.62683,257.13992,441.64844C257.08588,441.65924,257.0102,442.19974,256.96698,442.8375C256.92374,443.48608,256.84805,444.00494,256.8048,444.00494C256.7508,444.00494,256.70755,444.18872,256.70755,444.42648C256.70755,444.6535,256.63187,444.9886,256.5454,445.15076C256.45892,445.3237,256.38324,445.65878,256.38324,445.8966C256.39407,446.27496,256.6427,447.20456,256.82645,447.51804C256.8697,447.5721,256.92374,447.75586,256.96698,447.91803C256.9994,448.08014,257.20477,448.39365,257.42096,448.60983L257.81012,448.98816L257.81012,450.29614C257.81012,451.0744,257.76688,451.62567,257.70203,451.6689C257.63715,451.71216,257.5507,452.47964,257.50745,453.49576C257.46423,454.45782,257.38855,455.27936,257.3453,455.31177C257.29126,455.34418,257.24802,455.755,257.24802,456.2306C257.24802,456.7062,257.20477,457.08456,257.13992,457.08456C257.08588,457.08456,257.04263,457.90607,257.04263,459.15997C257.05347,462.11102,256.9021,467.24557,256.81564,467.24557C256.7724,467.24557,256.72916,468.56436,256.71835,470.1858C256.70755,471.96936,256.6535,473.18005,256.58862,473.2557C256.52377,473.3314,256.44812,473.66647,256.41568,473.99075C256.38324,474.32587,256.3076,474.5961,256.26434,474.5961C256.2103,474.5961,256.16705,474.8123,256.16705,475.07172C256.16705,475.396,256.113,475.56897,256.0049,475.6122C255.91844,475.64462,255.84277,475.77435,255.84277,475.89325C255.84277,476.01215,255.79953,476.10944,255.73468,476.10944C255.68063,476.10944,255.62659,476.22836,255.62659,476.36887C255.62659,476.5094,255.55092,476.64993,255.46445,476.69318C255.33472,476.73642,255.30229,476.9634,255.30229,477.78494C255.30229,478.4011,255.25906,478.81186,255.1942,478.81186C255.14015,478.81186,255.0861,479.02805,255.0861,479.28748C255.0861,479.5469,255.03204,479.78473,254.978,479.80634C254.91315,479.82797,254.83748,480.09818,254.79425,480.41168C254.76181,480.71436,254.68616,480.97375,254.64291,480.97375C254.58887,480.97375,254.54562,481.21158,254.54562,481.51425C254.54562,481.8061,254.50238,482.05472,254.44833,482.05472C254.39429,482.05472,254.31862,482.3466,254.27539,482.7033C254.23215,483.06003,254.15646,483.3519,254.10242,483.3519C254.04837,483.3519,254.00514,483.64374,254.00514,484.00046C254.00514,484.35718,253.9619,484.64902,253.90785,484.64902C253.8538,484.64902,253.77814,485.03818,253.7349,485.5138C253.69165,485.9894,253.616,486.37857,253.56195,486.37857C253.5079,486.37857,253.46466,486.61636,253.46466,486.91904C253.46466,487.2109,253.42142,487.45953,253.36737,487.45953C253.31332,487.45953,253.23766,488.02164,253.19443,488.70264C253.15118,489.38364,253.0755,489.94574,253.02145,489.94574C252.9674,489.94574,252.92416,490.20517,252.92416,490.52945C252.92416,490.85376,252.88094,491.1348,252.81607,491.15643C252.76202,491.1672,252.68637,491.54556,252.64313,491.96713C252.59988,492.3995,252.52422,492.75623,252.48099,492.75623C252.42694,492.75623,252.3837,492.99405,252.3837,493.2859C252.3837,493.6102,252.32965,493.8372,252.254,493.85883C252.16751,493.89124,252.10266,494.21555,252.08102,494.78845C252.05942,495.27487,251.99455,495.6748,251.9405,495.6748C251.88646,495.6748,251.84323,496.05316,251.84323,496.5288L251.84323,497.38275L252.41612,497.81512C252.7188,498.05295,253.616,498.5718,254.38348,498.97174C255.16177,499.3609,255.83197,499.73923,255.89682,499.79327C255.95087,499.84732,256.0806,499.89056,256.1887,499.89056C256.29678,499.89056,256.38324,499.9338,256.38324,499.97705C256.38324,500.0203,256.58862,500.16083,256.84805,500.29053C257.09668,500.40942,257.69122,500.79858,258.1668,501.13367C259.3883,502.02005,260.91248,502.91727,261.19354,502.91727C261.28,502.91727,261.35565,502.9713,261.35565,503.03616C261.35565,503.0857,261.20572,503.11084,260.88318,503.11084C260.43115,503.11084,259.64017,503.06143,258.44788,502.9605C258.25443,502.944,258.09857,502.93365,257.9731,502.93365C257.52368,502.93365,257.46423,503.06628,257.46423,503.5226C257.46423,504.18198,257.74527,504.27927,261.03137,504.70084C261.77725,504.79813,262.73932,504.90622,263.1717,504.93866C263.7662,504.9819,263.94995,505.03595,263.94995,505.15485C263.94995,505.22656,263.9852,505.2689,264.0427,505.2689C264.0632,505.2689,264.08655,505.26352,264.11212,505.25214C264.13443,505.2447,264.16357,505.24124,264.19757,505.24124C264.31183,505.24124,264.48102,505.2803,264.63098,505.33862C265.17145,505.5656,265.72275,505.72775,265.98218,505.72775C266.10107,505.72775,266.2416,505.771,266.27405,505.83585C266.30646,505.8899,266.447,505.94394,266.57672,505.94394C266.70642,505.94394,267.16043,506.07367,267.5712,506.2142C267.99277,506.36554,268.3927,506.4844,268.46838,506.4844C268.54407,506.4844,268.77106,506.5925,268.95483,506.73306C269.1494,506.87357,269.56015,507.06815,269.88446,507.18707C270.20874,507.29517,270.69516,507.53296,270.98703,507.7167C271.67883,508.18155,273.05167,509.4895,273.26785,509.88947C273.71106,510.7218,273.73267,510.8191,273.57053,510.91638C273.48407,510.9812,273.3435,511.02448,273.2787,511.02448C273.203,511.02448,273.13812,511.0677,273.13812,511.11093C273.13812,511.16498,272.93274,511.19742,272.68414,511.19742C272.4247,511.19742,271.58154,511.19742,270.80325,511.21906C269.6034,511.24066,269.3548,511.27307,269.16022,511.44604C269.0305,511.55414,268.9224,511.69464,268.9224,511.75952C268.9224,511.87143,267.85928,511.99026,267.11533,511.99026C266.9253,511.99026,266.7561,511.9825,266.63074,511.9649C266.55374,511.9551,266.4789,511.95038,266.40698,511.95038C265.9236,511.95038,265.5714,512.1638,265.5714,512.48376C265.5714,512.6351,265.5282,512.754,265.46332,512.754C265.40927,512.754,265.35522,512.91614,265.35522,513.1215C265.35522,513.3269,265.30118,513.5107,265.24713,513.5323C265.18225,513.5539,265.0958,513.84576,265.06335,514.19165C265.03094,514.5268,264.95526,514.80786,264.91205,514.80786C264.85797,514.80786,264.81476,514.97,264.81476,515.17535C264.81476,515.38074,264.76068,515.56445,264.68503,515.5861C264.62018,515.6077,264.5445,515.9104,264.5121,516.2455C264.49045,516.58057,264.4256,516.86163,264.37155,516.86163C264.3175,516.86163,264.27426,517.0778,264.27426,517.3373C264.27426,517.66156,264.2202,517.83453,264.11212,517.87775C264.00403,517.92096,263.94995,518.09393,263.94995,518.4291C263.94995,518.6993,263.90674,518.91547,263.84186,518.91547C263.78784,518.91547,263.73376,519.13165,263.73376,519.3911C263.73376,519.7154,263.67975,519.8883,263.57166,519.9316C263.45273,519.9748,263.4095,520.14777,263.4095,520.5369C263.4095,520.82874,263.36627,521.0774,263.3014,521.0774C263.24734,521.0774,263.1933,521.2936,263.1933,521.553C263.1933,521.81244,263.13925,522.05023,263.0744,522.0719C263.00952,522.0935,262.92307,522.3638,262.89063,522.67725C262.86902,522.9907,262.80414,523.2393,262.75012,523.2393C262.69604,523.2393,262.65283,523.4339,262.65283,523.6717C262.65283,523.90955,262.6096,524.10406,262.55554,524.10406C262.50146,524.10406,262.4258,524.41754,262.38257,524.8067C262.35016,525.19586,262.26367,525.50934,262.20966,525.50934C262.15558,525.50934,262.11237,525.7039,262.11237,525.9417C262.11237,526.17957,262.0691,526.37415,262.01508,526.37415C261.961,526.37415,261.88535,526.70917,261.8421,527.13074C261.7989,527.5415,261.7232,527.88745,261.66916,527.88745C261.6151,527.88745,261.57187,528.04956,261.57187,528.255C261.57187,528.4603,261.52863,528.6441,261.46378,528.6657C261.40973,528.6765,261.33405,529.0549,261.29083,529.47644C261.24756,529.9088,261.1719,530.26556,261.12866,530.26556C261.07465,530.26556,261.03137,530.42773,261.03137,530.63306C261.03137,530.8385,260.97736,531.0222,260.90167,531.0438C260.8368,531.0654,260.76114,531.37897,260.7287,531.75726C260.7071,532.1248,260.64224,532.4275,260.5882,532.4275C260.53412,532.4275,260.4909,532.6221,260.4909,532.87067C260.4909,533.11926,260.41522,533.3787,260.32877,533.4652C260.23148,533.5625,260.16663,533.8327,260.16663,534.1138C260.16663,534.37317,260.12338,534.5894,260.05853,534.5894C260.00446,534.5894,259.95044,534.78394,259.95044,535.0326C259.95044,535.28125,259.87476,535.54065,259.78827,535.62714C259.69098,535.7244,259.62613,535.9946,259.62613,536.2757C259.62613,536.53516,259.5829,536.75134,259.51804,536.75134C259.464,536.75134,259.40994,536.9675,259.40994,537.2269C259.40994,537.4863,259.3559,537.7242,259.29102,537.7458C259.2262,537.7674,259.1505,538.01605,259.11807,538.2971C259.08563,538.5781,259.00998,538.8051,258.96674,538.8051C258.9127,538.8051,258.86945,539.02136,258.86945,539.28076C258.86945,539.54016,258.82623,539.778,258.76135,539.7996C258.7073,539.8212,258.62085,540.1347,258.5884,540.50226C258.54517,540.8806,258.46948,541.1832,258.42627,541.1832C258.3722,541.1832,258.32898,541.3778,258.32898,541.6156C258.32898,541.85345,258.28574,542.048,258.2317,542.048C258.17764,542.048,258.0912,542.3615,258.05872,542.7507C258.0155,543.1398,257.93982,543.45325,257.8858,543.45325C257.83173,543.45325,257.7885,543.6262,257.7885,543.8316C257.7885,544.037,257.74527,544.20996,257.69122,544.20996C257.63715,544.20996,257.57233,544.3937,257.5399,544.60986C257.43176,545.32336,257.26965,546.0908,257.15076,546.3935C257.09668,546.55566,257.0102,547.06366,256.96698,547.52844C256.92374,547.9933,256.84805,548.40405,256.7832,548.4473C256.63187,548.5338,256.25354,550.0579,256.32922,550.2525C256.36163,550.339,256.32922,550.4471,256.25354,550.4903C256.16705,550.5444,256.12384,550.77136,256.13464,551.06323C256.14545,551.3875,256.1022,551.5605,255.99411,551.6037C255.90762,551.6361,255.84277,551.76587,255.84277,551.89557C255.84277,552.11176,255.70226,552.6738,255.39958,553.67914C255.34554,553.8629,255.30229,554.1872,255.30229,554.4034C255.30229,554.61957,255.25906,554.80334,255.1942,554.80334C255.14015,554.80334,255.0861,554.91144,255.0861,555.04114C255.0861,555.2465,254.94559,555.80865,254.64291,556.81396C254.58887,556.9977,254.54562,557.2355,254.54562,557.3436C254.54562,557.4517,254.50238,557.6895,254.43753,557.8733C254.23215,558.5543,253.78894,560.5,253.72409,561.04047C253.68085,561.35394,253.616,561.6134,253.56195,561.6134C253.5079,561.6134,253.46466,561.7864,253.46466,561.9917C253.46466,562.19714,253.42142,562.37006,253.35657,562.37006C253.30252,562.37006,253.24847,562.5214,253.24847,562.71594C253.24847,562.8997,253.20523,563.2024,253.15118,563.38617C253.04309,563.73206,252.82689,564.60767,252.61069,565.5373C252.54584,565.81836,252.52422,566.17505,252.55664,566.31555C252.59988,566.4777,252.57828,566.5858,252.5026,566.5858C252.43774,566.5858,252.3837,566.7696,252.3837,567.0074C252.3837,567.2452,252.32965,567.45056,252.2648,567.47217C252.19994,567.49384,252.11346,567.7749,252.08102,568.0991C252.05942,568.42346,251.99455,568.71533,251.96213,568.74774C251.85403,568.8234,251.61621,569.80707,251.55136,570.4232C251.51892,570.7151,251.45407,570.98535,251.41083,571.01776C251.30273,571.0934,251.07574,572.0231,251.01088,572.6608C250.97845,572.95264,250.91359,573.1797,250.85954,573.1797C250.8055,573.1797,250.76227,573.3094,250.76227,573.47156C250.76227,573.6445,250.68658,574.012,250.60011,574.3039C250.51364,574.5957,250.43797,574.99567,250.43797,575.20105C250.43797,575.3956,250.39474,575.5578,250.32988,575.5578C250.27583,575.5578,250.22179,575.7091,250.22179,575.8929C250.22179,576.07666,250.16772,576.31445,250.11368,576.42255C250.04883,576.5415,249.97316,576.9198,249.92993,577.2873C249.89749,577.64404,249.83264,577.9359,249.7894,577.9359C249.70291,577.9359,249.6705,578.0872,249.44348,579.4492C249.37863,579.89246,249.28134,580.2816,249.24892,580.314C249.13,580.4005,248.93544,581.31934,248.85977,582.1408C248.81653,582.5624,248.74086,582.9083,248.69763,582.9083C248.53548,582.9083,248.58954,583.2758,248.81653,583.7839C249.17325,584.5405,249.19487,584.5622,249.6813,584.8973C250.0489,585.1488,250.50885,585.28485,250.88438,585.28485C251.13829,585.28485,251.35359,585.22266,251.4757,585.09186C251.58379,584.97296,251.78917,584.84326,251.91888,584.8108C252.05942,584.7676,252.19994,584.6054,252.24318,584.44324C252.2756,584.2811,252.42694,584.06494,252.56746,583.95685C252.70798,583.84875,252.81607,583.665,252.81607,583.5569C252.81607,583.4488,252.88094,583.3407,252.9674,583.3082C253.10794,583.2542,253.17279,583.0164,253.32413,581.9895C253.35657,581.7517,253.43222,581.52466,253.48627,581.49225C253.616,581.40576,253.78894,580.7031,253.86462,579.93567C253.89703,579.633,253.95108,579.37354,253.99432,579.3411C254.10242,579.25464,254.43753,577.80615,254.43753,577.417C254.43753,577.2333,254.49158,577.0711,254.54562,577.0711C254.61047,577.0711,254.65372,576.909,254.65372,576.7144C254.65372,576.51984,254.69696,576.31445,254.76181,576.2496C254.81586,576.19556,254.90234,575.83887,254.93477,575.4713C254.978,575.10376,255.04286,574.80115,255.0861,574.80115C255.12933,574.80115,255.1942,574.639,255.23743,574.4552C255.26987,574.2606,255.35635,573.75256,255.4212,573.3418C255.49687,572.9202,255.59415,572.56354,255.62659,572.5311C255.71306,572.46625,255.81035,572.0447,255.9725,570.90967C256.03735,570.46643,256.13464,570.0665,256.1887,570.03406C256.29678,569.95844,256.59943,568.6072,256.59943,568.1316C256.59943,567.9478,256.6535,567.7749,256.70755,567.75323C256.83725,567.71,257.13992,566.38043,257.13992,565.8616C257.13992,565.667,257.19397,565.5049,257.24802,565.5049C257.31287,565.5049,257.3561,565.20215,257.3561,564.80225C257.3561,564.4023,257.39935,564.0996,257.46423,564.0996C257.52905,564.0996,257.57233,563.905,257.57233,563.67804C257.57233,563.4402,257.64798,563.1808,257.73444,563.0835C257.82092,562.997,257.8966,562.7484,257.8966,562.5214C257.8966,562.11884,258.00067,561.9343,258.28937,561.9343C258.42703,561.9343,258.60666,561.9763,258.83704,562.0566C259.1505,562.1647,259.88556,562.34845,260.4693,562.46735C261.40973,562.6511,261.8205,562.7268,263.33383,562.9646C263.78784,563.0403,263.78784,563.0187,263.62567,564.2077C263.51758,564.9968,263.1717,568.28296,262.9771,570.3692C262.78253,572.4122,262.65283,573.6769,262.54474,574.4552C262.32855,576.07666,262.4042,576.35767,263.13925,576.63873C263.58774,576.81024,264.04025,576.8972,264.48697,576.8972C264.7724,576.8972,265.05548,576.8617,265.33362,576.79004C265.73358,576.682,266.00378,576.55225,266.00378,576.46576C266.00378,576.3793,266.04706,576.31445,266.10107,576.31445C266.14432,576.31445,266.21997,576.0118,266.26324,575.6334C266.29565,575.2659,266.38214,574.94165,266.4362,574.93085C266.50104,574.9092,266.54428,574.4877,266.54428,573.9796C266.54428,573.48236,266.58752,573.0716,266.64157,573.0716C266.69562,573.0716,266.76047,572.57434,266.7821,571.969C266.8037,571.2123,266.85776,570.8556,266.95505,570.8232C267.0415,570.8016,267.08478,570.5097,267.08478,569.88275C267.08478,569.3747,267.128,568.9639,267.19287,568.9423C267.25772,568.92065,267.33337,568.3586,267.37662,567.68835C267.40906,567.029,267.48474,566.4777,267.53876,566.4777C267.582,566.4777,267.62524,566.06696,267.62524,565.5589C267.62524,565.01843,267.6685,564.6401,267.73334,564.6401C267.79822,564.6401,267.84143,564.3915,267.84143,564.078L267.84143,563.52673L270.14386,563.624C271.3978,563.67804,273.36514,563.72125,274.48932,563.72125C276.381,563.71045,281.73175,563.50507,283.24512,563.38617L283.89368,563.3213L284.0234,564.0672C284.09906,564.4671,284.18555,565.1157,284.2288,565.5049C284.27203,565.894,284.33688,566.25073,284.38013,566.31555C284.42337,566.3696,284.48822,566.7588,284.52066,567.18036C284.62875,568.54236,284.8125,569.86115,284.9098,569.98004C284.96387,570.0449,285.03952,570.48804,285.07196,570.9637C285.20166,572.7473,285.32056,573.60126,285.45026,573.7634C285.54755,573.87146,285.56918,574.0769,285.53674,574.3255C285.50433,574.5309,285.54755,575.07135,285.63403,575.5145C285.72052,575.96857,285.7854,576.50903,285.7854,576.7252C285.7854,576.9522,285.85022,577.2549,285.9367,577.40625C286.0232,577.58997,286.06644,577.89264,286.0232,578.2385C285.99075,578.5845,286.034,578.952,286.1421,579.25464C286.23938,579.5033,286.34747,579.9573,286.37988,580.25995C286.42313,580.5518,286.4772,580.8437,286.5096,580.8977C286.54205,580.9518,286.58527,581.28687,286.6069,581.6544C286.6285,582.0111,286.70416,582.64886,286.76904,583.07043C286.90955,583.96765,286.92038,584.4541,286.8123,586.7025L286.7258,588.3779L287.3636,589.02655C288.1743,589.8481,289.24445,590.36694,290.14166,590.36694C290.34702,590.36694,290.66052,590.421,290.83347,590.48584C291.53607,590.7669,295.11407,591.1993,300.86478,591.71814C301.81604,591.8046,303.19965,591.9451,303.9455,592.0316C306.3328,592.31836,308.8805,592.46936,310.92627,592.46936C312.19678,592.46936,313.2737,592.41113,313.9984,592.291C314.62537,592.183,316.92786,591.82623,319.133,591.50195C322.46234,591.0047,323.26227,590.8534,323.94327,590.5723C325.07828,590.1183,325.4242,589.8697,325.4242,589.4805C325.4242,589.3184,325.39175,589.17786,325.3485,589.17786C325.24042,589.17786,324.91614,588.4428,324.91614,588.1942C324.91614,587.67535,324.38647,586.9403,323.45685,586.162C323.15417,585.9134,321.81378,585.7188,320.43015,585.7188C319.30594,585.7188,319.07895,585.6864,318.76544,585.4918C318.3439,585.24316,318.05203,584.96216,318.05203,584.8324C318.05203,584.7031,317.5304,584.3816,317.3376,584.3816C317.32083,584.3816,317.30658,584.38403,317.29535,584.3892C317.27603,584.3956,317.24832,584.39874,317.2135,584.39874C316.9561,584.39874,316.31216,584.2312,315.83606,584.0217C314.91727,583.6217,313.25256,582.7894,312.88507,582.52997C312.65805,582.37866,312.43103,582.25977,312.38782,582.25977C312.15,582.25977,310.3664,581.12476,309.27463,580.27075C308.82062,579.92487,308.345,579.579,308.22614,579.5141C307.437,579.0925,306.3777,578.2818,305.62097,577.52515C305.49127,577.3954,305.32913,577.2873,305.26428,577.2873C305.1994,577.2873,305.0913,577.19006,305.02646,577.0819C304.9724,576.963,304.8319,576.8441,304.72382,576.8117C304.55084,576.7577,304.52924,576.63873,304.52924,576.09827C304.54004,575.6334,304.5076,575.4497,304.41034,575.4497C304.33466,575.4497,304.26978,575.3524,304.26978,575.22266C304.26978,575.10376,304.22656,574.9092,304.16168,574.80115C304.10767,574.693,304.0428,574.3904,304.02118,574.1309C303.95633,573.4391,303.64282,572.82294,303.10236,572.36896C302.6916,572.0231,302.66998,571.7528,303.00507,571.2988C303.14557,571.11505,303.35098,570.7583,303.45908,570.4989C303.5672,570.25024,303.6969,570.0449,303.7293,570.0449C303.8266,570.0449,303.7834,569.5909,303.64282,569.2558C303.5672,569.0828,303.51312,568.73694,303.51312,568.4775C303.51312,568.2181,303.46988,567.9694,303.40503,567.937C303.35098,567.9046,303.29694,567.75323,303.29694,567.6019C303.29694,567.4614,303.35098,567.34247,303.40503,567.34247C303.46988,567.34247,303.51312,567.2452,303.51312,567.1263C303.51312,566.8669,304.06442,566.26154,304.2914,566.26154C304.37787,566.26154,304.8427,566.4561,305.32913,566.6939C305.80475,566.9317,306.24796,567.1263,306.3128,567.1263C306.3777,567.1263,306.4317,567.16956,306.4317,567.2344C306.4317,567.28845,306.47498,567.34247,306.529,567.34247C306.58307,567.34247,307.01544,567.51544,307.48022,567.7208C309.30707,568.55316,311.65277,569.3963,312.1392,569.3963C312.26892,569.3963,312.46347,569.4396,312.5716,569.4936C312.88507,569.65576,314.33356,569.92596,315.2956,569.99084C315.55096,570.00745,315.73917,570.0179,315.88736,570.0179C316.22226,570.0179,316.35297,569.9644,316.59274,569.80707C316.98187,569.54767,317.0143,569.4828,317.06836,568.63965C317.08997,568.3694,317.15485,567.937,317.2197,567.66675C317.28455,567.39655,317.29535,567.1587,317.24133,567.1263C317.19806,567.0939,317.1224,566.8885,317.07916,566.6723C317.03595,566.4453,316.93866,566.21826,316.85217,566.1426C316.7657,566.07776,316.70084,565.95886,316.70084,565.894C316.69,565.494,315.71716,564.87787,314.1065,564.2185C313.47955,563.9699,312.86343,563.68884,312.7337,563.60236C312.604,563.51587,312.42023,563.45105,312.33374,563.45105C312.24728,563.45105,312.02026,563.3105,311.8257,563.1267C311.63113,562.9538,311.16632,562.68353,310.78796,562.5322C310.40964,562.38086,309.92322,562.089,309.71783,561.88367C309.51245,561.6782,309.31787,561.5053,309.28546,561.5053C309.19897,561.5053,307.83698,560.13245,307.83698,560.046C307.83698,560.00275,307.72888,559.85144,307.59915,559.7217C307.27487,559.3866,307.17758,559.2569,306.91815,558.74884C306.79926,558.52185,306.57224,558.18677,306.4101,558.003C306.24796,557.8301,306.13986,557.64624,306.1723,557.603C306.1939,557.5598,306.16147,557.48413,306.08582,557.43005C305.90204,557.322,305.67505,556.9004,305.67505,556.695C305.67505,556.6085,305.6318,556.5329,305.57776,556.5329C305.4048,556.5329,304.59406,554.76013,304.59406,554.371C304.59406,554.1548,304.54004,553.9278,304.47516,553.8629C304.41034,553.7981,304.33466,553.19275,304.30225,552.5117L304.23737,551.2794L304.52924,551.09564C304.72382,550.95514,304.81027,550.8146,304.81027,550.5768C304.81027,550.39307,304.87512,550.2309,304.9724,550.1985C305.0697,550.1552,305.13455,549.99304,305.13455,549.77686C305.13455,549.57153,305.1778,549.29047,305.24268,549.1391C305.32913,548.8905,305.4048,548.85803,305.848,548.85803C306.34525,548.85803,307.0803,548.59863,307.0803,548.41486C307.0803,548.36084,307.13434,548.3176,307.1884,548.3176C307.25323,548.3176,307.36133,548.26355,307.437,548.2095C307.6532,548.0149,308.71252,547.3447,308.7882,547.3447C308.83145,547.3447,308.9287,547.24744,309.0044,547.12854C309.08008,547.00964,309.17737,546.91235,309.23138,546.91235C309.28546,546.91235,309.5449,546.707,309.81512,546.4475C310.07452,546.1989,310.55017,545.77734,310.86365,545.5071C311.17712,545.2368,311.54468,544.9126,311.68518,544.77203C311.8257,544.64233,311.98785,544.53424,312.0527,544.53424C312.10675,544.53424,312.16083,544.49097,312.16083,544.44775C312.16083,544.3937,312.4851,544.0802,312.89587,543.7343C314.79834,542.12366,315.85767,541.1724,316.03064,540.93463C316.10632,540.83734,316.24683,540.75085,316.3333,540.75085C316.4198,540.75085,316.48465,540.70764,316.48465,540.64276C316.48465,540.49146,317.29535,539.6699,317.43588,539.6699C317.51154,539.6699,317.5656,539.61584,317.5656,539.54016C317.5656,539.47534,317.8899,539.0754,318.30066,538.6538C318.70062,538.23224,319.1762,537.7134,319.34918,537.508C319.53296,537.2918,319.96533,536.78375,320.32205,536.373C320.67877,535.9514,321.10034,535.44336,321.25168,535.238C321.41382,535.0326,321.7381,534.64343,321.98672,534.38403C322.22455,534.1246,322.42993,533.8651,322.42993,533.8111C322.42993,533.7571,322.50558,533.6922,322.59207,533.6598C322.67853,533.6165,322.7542,533.5409,322.7542,533.4652C322.7542,533.4003,323.00284,533.08685,323.29468,532.7734C323.59735,532.4491,323.83517,532.1572,323.83517,532.10315C323.83517,532.04913,324.00812,531.83295,324.2135,531.60596C324.41888,531.3898,324.59183,531.1736,324.59183,531.1195C324.59183,531.0763,324.71075,530.94653,324.8621,530.82764C325.01343,530.70874,325.13232,530.56824,325.13232,530.50336C325.13232,530.44934,325.3485,530.1683,325.61877,529.8764C325.88898,529.59534,326.10516,529.32513,326.10516,529.28186C326.10516,529.23865,326.28897,529.01166,326.51593,528.7738C326.73215,528.5468,327.01318,528.22253,327.1321,528.0604C327.251,527.89825,327.42395,527.67126,327.51044,527.5632C327.59692,527.4551,327.8239,527.1848,327.9969,526.9578C328.18063,526.74164,328.50494,526.3633,328.73193,526.1255C328.94812,525.8985,329.1319,525.6823,329.1319,525.64984C329.1319,525.61743,329.34808,525.37964,329.61832,525.1202C329.88855,524.8716,330.10474,524.6337,330.10474,524.5905C330.10474,524.54724,330.5263,524.05005,331.056,523.4771C331.93158,522.5043,332.27747,522.1259,332.63422,521.72595C332.91525,521.4017,334.2124,519.4668,334.2124,519.34784C334.2124,519.2938,334.26642,519.23975,334.3205,519.23975C334.38535,519.23975,334.4286,519.1857,334.4286,519.13165C334.4286,519.02356,334.48264,518.9479,334.80692,518.5588C334.96906,518.375,335.73657,516.74274,336.14734,515.7266C336.29865,515.34827,336.47162,514.7646,336.54724,514.343C336.5797,514.12683,336.64456,513.94305,336.6878,513.94305C336.7202,513.94305,336.76343,512.89453,336.7743,511.6082C336.78506,509.80298,336.75266,509.21927,336.63373,508.99225C336.54724,508.8301,336.4824,508.63556,336.4824,508.55988C336.4824,508.48422,336.43915,508.34366,336.38513,508.23557C336.3419,508.1383,336.1581,507.77078,335.99597,507.43567C335.83383,507.1006,335.62845,506.7979,335.5528,506.76547C335.4663,506.73306,335.40146,506.65738,335.40146,506.5925C335.40146,506.3547,333.2287,504.35492,332.79633,504.19278C332.67743,504.14957,332.59094,504.06308,332.59094,503.99823C332.59094,503.94418,332.5045,503.8901,332.40717,503.8901C332.29907,503.8901,331.9964,503.71716,331.737,503.51178C331.47754,503.30643,331.1965,503.13345,331.12085,503.13345C331.03436,503.13345,330.9695,503.0902,330.9695,503.03616C330.9695,502.98212,330.80737,502.88483,330.6236,502.80917C330.42902,502.7227,330.19122,502.60376,330.10474,502.5389C330.01825,502.46326,329.62912,502.23624,329.24,502.03088C328.85083,501.8147,328.36438,501.54443,328.159,501.4147C327.9536,501.29584,327.60773,501.10126,327.40234,501.00394C327.19696,500.89584,326.98077,500.77698,326.91592,500.7229C326.61325,500.4959,325.8998,500.0527,325.61877,499.923C325.4458,499.84732,325.07828,499.63113,324.80804,499.4582C324.53778,499.2744,324.23514,499.10147,324.13785,499.06903C324.02975,499.0258,323.94327,498.96094,323.94327,498.9177C323.94327,498.87448,323.75952,498.75555,323.54333,498.64746C323.3163,498.55017,322.938,498.3556,322.70016,498.2259C321.88947,497.75027,319.88965,496.75577,319.74915,496.75577C319.73502,496.75577,319.72214,496.756,319.71048,496.756C319.58813,496.756,319.60016,496.72894,319.73834,496.1072C319.80316,495.81537,319.88965,495.5667,319.92212,495.5667C320.09506,495.5667,320.8085,493.41562,320.8085,492.9292C320.8085,492.8319,320.88416,492.72382,320.97064,492.69138C321.0571,492.64813,321.11115,492.58328,321.07874,492.54004C321.04633,492.486,321.07874,492.3887,321.15442,492.30222C321.23004,492.22656,321.29492,492.04282,321.30573,491.89148C321.31653,491.6104,321.67325,490.9186,321.80298,490.9186C321.8462,490.9186,321.857,490.84293,321.8246,490.75644C321.78134,490.66998,321.81378,490.59433,321.87863,490.59433C321.94348,490.59433,321.99756,490.4646,321.99756,490.29166C321.99756,490.1295,322.09482,489.8809,322.21375,489.72955C322.33264,489.57822,322.42993,489.40527,322.42993,489.3404C322.42993,489.26474,322.50558,489.18906,322.59207,489.14584C322.67853,489.1134,322.7434,489.0053,322.7326,488.89722C322.70016,488.47565,322.765,488.3351,323.00284,488.30267C323.20822,488.27026,323.24066,488.20538,323.25146,487.82706C323.25146,487.57843,323.32712,487.2974,323.4136,487.2001C323.75952,486.82175,323.83517,486.70285,323.83517,486.5407C323.83517,486.45425,323.87842,486.37857,323.93246,486.37857C323.9865,486.37857,324.0514,486.29208,324.0946,486.184C324.1595,485.9894,324.38647,485.60028,324.49457,485.5138C324.53778,485.48138,324.59183,485.36246,324.63507,485.23276C324.66754,485.11386,324.91614,484.90845,325.17554,484.76794C325.42374,484.64673,325.54865,484.59024,325.6869,484.59024C325.80753,484.59024,325.9383,484.63327,326.17004,484.71387C326.4511,484.8112,326.7862,484.9517,326.9051,485.02737C327.0348,485.10303,327.31586,485.20032,327.54285,485.23276C327.75906,485.27597,327.9428,485.35165,327.9428,485.4057C327.9428,485.47055,328.09418,485.5138,328.2671,485.5138C328.61304,485.5138,329.1211,485.10303,329.294,484.7031C329.4021,484.44366,329.44537,483.0276,329.33728,483.0276C329.30484,483.0276,329.1859,482.8006,329.07782,482.50873C328.86163,481.92502,328.34277,480.96295,327.97525,480.47653C327.83472,480.29276,327.72662,480.0874,327.72662,480.02252C327.72662,479.95767,327.62933,479.84958,327.51044,479.78473C327.39154,479.71988,327.29425,479.60095,327.29425,479.51447C327.29425,479.42798,327.251,479.35233,327.18616,479.35233C327.1321,479.35233,326.9267,479.14694,326.75378,478.89835C326.10516,478.01193,324.59183,476.53104,323.83517,476.0554C323.59735,475.90405,323.4136,475.7419,323.43524,475.69867C323.45685,475.59058,323.01364,475.21225,322.32184,474.75827C322.05157,474.57446,321.81378,474.40152,321.78134,474.3691C321.66245,474.21777,320.3653,473.73132,320.07343,473.73132C319.9113,473.73132,319.7167,473.6773,319.65186,473.61243C319.60535,473.56592,319.47308,473.5439,319.26254,473.5439C319.13058,473.5439,318.9679,473.55255,318.7763,473.5692L318.0196,473.64484L317.84665,474.09885C317.58722,474.77988,317.63046,475.0501,318.17096,476.2932C318.25742,476.47696,318.32227,476.68234,318.32227,476.73642C318.32227,476.80127,318.38715,476.86612,318.452,476.88773C318.5493,476.92017,318.49524,477.0715,318.28986,477.38498C318.1277,477.6336,317.998,477.8606,317.998,477.893C317.998,477.93625,317.8791,478.12003,317.72775,478.3146C317.57642,478.5092,317.45752,478.70377,317.45752,478.747C317.45752,478.79022,317.28455,479.0929,317.07916,479.4172C316.87378,479.7415,316.70084,480.04416,316.70084,480.09818C316.70084,480.19223,316.5521,480.266,316.4097,480.266C316.372,480.266,316.33478,480.26083,316.30087,480.2495C316.22522,480.2171,316.16034,480.1306,316.16034,480.04416C316.16034,479.95767,316.11713,479.89282,316.05225,479.89282C315.8901,479.89282,315.91174,478.3146,316.0847,478.14166C316.14954,478.06598,316.21442,477.81738,316.22522,477.59036C316.22522,477.36337,316.27927,477.13635,316.3333,477.10394C316.38736,477.0607,316.4522,476.85532,316.463,476.64993C316.48465,476.44455,316.5711,476.10944,316.6576,475.9149C316.74408,475.7203,316.7873,475.51492,316.75488,475.46088C316.72247,475.40683,316.75488,475.2447,316.81976,475.11496C316.8954,474.97446,316.97107,474.7042,316.99268,474.5096C317.0143,474.31503,317.17645,473.95834,317.34943,473.70972C317.53317,473.4611,317.6737,473.21246,317.6737,473.1368C317.6737,473.06113,317.771,472.92062,317.8899,472.81253C318.0088,472.70444,318.10608,472.48825,318.10608,472.3369C318.10608,472.18558,318.18176,471.91534,318.26825,471.7424C318.3547,471.58023,318.43036,471.3424,318.43036,471.2343C318.43036,471.0938,318.50604,471.02893,318.67902,471.02893C318.9925,471.01813,319.43567,470.63977,319.72754,470.1101C320.09506,469.46155,320.31125,467.68875,320.1383,466.89966C320.04102,466.43484,320.18152,465.94843,320.43015,465.94843C320.52747,465.94843,320.63556,465.84033,320.68958,465.6998C320.74365,465.57007,320.9166,465.32147,321.06793,465.15933C321.21927,464.99716,321.349,464.8026,321.349,464.74854C321.349,464.46753,321.7489,463.9919,322.084,463.88376C322.60287,463.71082,323.29468,463.01904,323.29468,462.67313C323.29468,462.51096,323.34875,462.38126,323.40277,462.38126C323.46765,462.38126,323.5109,462.26236,323.5109,462.11102C323.5109,461.9597,323.58655,461.80835,323.67303,461.7759C323.75952,461.73267,323.81354,461.66782,323.78113,461.62457C323.75952,461.58133,323.82437,461.43,323.94327,461.2895C324.3,460.84628,324.3216,460.82465,324.34323,460.57605C324.35403,460.45712,324.3,460.28418,324.2135,460.21936C324.12704,460.14368,324.0514,460.03558,324.0514,459.9815C324.0514,459.9167,323.9541,459.7329,323.82437,459.55994C323.619,459.25726,323.60815,459.21405,323.75952,458.7276C324.0622,457.77637,324.0622,457.64667,323.67303,457.32236C323.32712,457.0305,323.21902,456.7278,323.02448,455.5496C322.9488,455.06317,322.6353,454.7929,321.93268,454.59833C321.72946,454.53735,321.5859,454.50745,321.43362,454.50745C321.2619,454.50745,321.079,454.54547,320.78687,454.61996L320.1383,454.7929L320.20316,454.24164C320.2464,453.92813,320.3004,453.39847,320.3329,453.05255C320.3653,452.71747,320.44098,452.4364,320.495,452.4364C320.54907,452.4364,320.5923,452.3175,320.5923,452.1662C320.5923,452.01483,320.66797,451.71216,320.75443,451.49597C320.8409,451.2906,320.9166,450.94467,320.9166,450.75012C320.9166,450.54474,320.97064,450.38263,321.0247,450.38263C321.18683,450.38263,321.1652,448.5882,321.00305,448.31796C320.88416,448.12338,320.89496,448.06934,321.00305,448.03693C321.11115,447.99368,321.11115,447.95044,321.00305,447.8099C320.89496,447.68018,320.89496,447.63693,321.00305,447.60452C321.06793,447.5721,321.13278,447.464,321.13278,447.35593C321.13278,447.2478,321.18683,447.11807,321.24088,447.08566C321.55432,446.89108,321.23004,445.73444,320.86255,445.73444C320.61392,445.73444,320.55988,445.51825,320.74365,445.3129C320.8409,445.20477,320.9166,445.02103,320.9166,444.89133C320.9166,444.7616,320.97064,444.6535,321.0247,444.6535C321.08954,444.6535,321.13278,444.51297,321.13278,444.34003C321.13278,444.16705,321.20844,443.8536,321.29492,443.6482L321.4571,443.25906L322.0732,443.3131C322.41913,443.34552,322.91635,443.378,323.1974,443.41043C323.29962,443.41925,323.39008,443.42374,323.46915,443.42374C323.8751,443.42374,323.9817,443.30524,323.846,443.04285C323.77032,442.92398,323.65143,442.8159,323.56494,442.8159C323.47845,442.8159,323.40277,442.77264,323.40277,442.7294C323.40277,442.61047,322.68936,442.2754,322.42993,442.2754C322.28802,442.2754,322.1446,442.24194,322.02475,442.19043L322.0215,442.19043Q322.66858,440.39075,322.95697,438.95523L322.95374,438.95523C323.08765,438.6014,323.1961,438.2234,323.25146,437.8867C323.2851,437.626,323.27292,437.44385,323.18445,437.2231L323.1812,437.2231Q323.1821,437.20322,323.18286,437.1834Q323.273,435.29398,322.3348,433.91266Q321.5044,432.64117,319.38962,431.48138Q317.6615,430.49088,313.3283,428.82022L313.32516,428.82022C312.9447,428.5156,312.24835,428.07654,311.69598,427.79053C310.4853,427.15277,309.8692,426.77444,309.45844,426.41772C309.30707,426.288,308.972,426.00696,308.70172,425.79074C308.02072,425.23944,307.95587,425.18542,307.36133,424.55844C307.03705,424.2234,306.73438,424.00717,306.59387,424.00717C306.46414,424.00717,306.2804,423.92072,306.1831,423.81256C306.08582,423.7153,305.82635,423.53156,305.59937,423.41263C305.37238,423.2937,305.0697,423.08835,304.91837,422.9478C304.6391,422.7014,304.1788,422.52362,303.9027,422.52362C303.8155,422.52362,303.74664,422.54138,303.7077,422.58032C303.63202,422.65594,303.44824,422.71002,303.2753,422.71002C302.99426,422.71002,302.98346,422.6884,303.04834,422.3533C303.08075,422.16956,303.15643,421.98575,303.21045,421.97498C303.37262,421.8993,303.62122,421.3264,303.62122,420.98047C303.62122,420.79672,303.50232,420.4724,303.3618,420.24542L303.10236,419.83466L303.52393,419.59686C303.97797,419.33743,304.03198,419.16446,304.09683,418.0078C304.11847,417.65112,304.14008,417.3268,304.15088,417.27277C304.16168,417.22952,304.24817,417.1971,304.3671,417.1971C304.55084,417.1971,305.67505,416.181,305.67505,416.00806C305.67505,415.9648,305.82635,415.78107,305.99933,415.59732C306.1831,415.4027,306.3236,415.17572,306.3236,415.08926C306.3236,415.00278,306.3885,414.9271,306.46414,414.9271C306.61548,414.9271,306.8641,414.44067,306.8641,414.1488C306.8641,414.04074,306.90735,413.95425,306.9614,413.95425C307.12354,413.95425,307.4046,413.30566,307.4046,412.91653C307.4046,412.6571,307.3181,412.49493,307.0695,412.28955C306.88574,412.13824,306.69116,412.0085,306.62628,412.0085C306.56143,412.0085,306.4317,411.93283,306.3344,411.84637C306.23712,411.7599,306.05338,411.59772,305.92365,411.47882C305.7291,411.30588,305.70746,411.18698,305.7507,410.79785C305.78314,410.5492,305.848,410.31143,305.89124,410.279C305.99933,410.2141,306.3236,408.62512,306.3236,408.21432C306.3236,408.04138,306.3777,407.90085,306.46414,407.90085C306.55063,407.90085,306.5398,407.85764,306.4317,407.79276C306.3236,407.7279,306.3128,407.68466,306.4101,407.68466C306.47498,407.68466,306.5398,407.60898,306.5398,407.5225C306.5398,407.5101,306.5389,407.49796,306.5372,407.4862L306.53415,407.4862Q309.66583,405.6654,310.91913,404.3659Q312.63544,402.68533,312.98352,400.61957Q313.37796,397.99365,311.92844,396.2772Q310.63574,394.75662,307.78464,394.65073L307.7613,394.6496Q307.43857,394.6354,307.09705,394.6354Q304.98218,394.6354,302.14624,395.17923L302.14624,395.17923C302.06665,395.0893,301.982,394.96066,301.92413,394.83203C301.8268,394.61584,301.67548,394.39966,301.59982,394.3564C301.52417,394.31317,301.4593,394.2051,301.4593,394.12943C301.4593,394.04294,301.3404,393.87,301.18906,393.7295C301.04852,393.58896,300.91882,393.41602,300.91882,393.36197C300.91882,393.2971,300.81073,393.13495,300.681,392.98364C300.54047,392.83228,300.36752,392.59448,300.29187,392.4431C300.2162,392.2918,299.9135,391.91345,299.62164,391.6C299.319,391.2865,299.08118,391.00546,299.08118,390.97302C299.08118,390.85413,297.65433,389.09216,297.3733,388.86514C296.97202,388.55652,296.4533,388.35556,296.0687,388.35556 Z"/> </g> </g> </svg>